<mxfile host="app.diagrams.net" modified="2024-06-16T06:39:04.478Z" agent="Mozilla/5.0 (Windows NT 10.0; Win64; x64) AppleWebKit/537.36 (KHTML, like Gecko) Chrome/125.0.0.0 Safari/537.36" version="24.5.4" etag="xrdycGY4gKFc-ah_s82z" type="github">
  <diagram name="Page-1" id="_I6hWkQRlT_WKu_dA6Va">
    <mxGraphModel>
      <root>
        <mxCell id="0" />
        <mxCell id="1" parent="0" />
      </root>
    </mxGraphModel>
  </diagram>
</mxfile>
